<?xml version="1.0" encoding="UTF-8"?>
<svg xmlns="http://www.w3.org/2000/svg" xmlns:xlink="http://www.w3.org/1999/xlink" width="640" height="200" viewBox="0 0 640 200" role="img" aria-label="EmoLearn Logo">
  <defs>
    <linearGradient id="g1" x1="0%" y1="0%" x2="100%" y2="0%">
      <stop offset="0%" stop-color="#86EFAC"/>
      <stop offset="50%" stop-color="#60A5FA"/>
      <stop offset="100%" stop-color="#C4B5FD"/>
    </linearGradient>
    <linearGradient id="g2" x1="0%" y1="0%" x2="0%" y2="100%">
      <stop offset="0%" stop-color="#F9FAFB"/>
      <stop offset="100%" stop-color="#EAF6FF"/>
    </linearGradient>
    <filter id="shadow" x="-20%" y="-20%" width="140%" height="140%">
      <feDropShadow dx="0" dy="2" stdDeviation="3" flood-color="#60A5FA" flood-opacity="0.15"/>
    </filter>
  </defs>

  <rect x="0" y="0" width="640" height="200" rx="16" fill="url(#g2)"/>

  <!-- Emotive mark: smile arc + study cap accent -->
  <g transform="translate(48,40)" filter="url(#shadow)">
    <circle cx="60" cy="60" r="56" fill="#FFFFFF" stroke="url(#g1)" stroke-width="4"/>
    <circle cx="44" cy="58" r="6" fill="#34D399"/>
    <circle cx="76" cy="58" r="6" fill="#34D399"/>
    <path d="M36 78 Q60 96 84 78" fill="none" stroke="url(#g1)" stroke-width="5" stroke-linecap="round"/>
    <!-- Mortarboard (simple) -->
    <polygon points="60,32 86,40 60,48 34,40" fill="#60A5FA" opacity="0.9"/>
    <line x1="86" y1="40" x2="86" y2="54" stroke="#60A5FA" stroke-width="2"/>
    <circle cx="86" cy="54" r="3" fill="#60A5FA"/>
  </g>

  <!-- Wordmark -->
  <g transform="translate(170,64)" fill="#374151">
    <text x="0" y="0" font-family="Inter, ui-sans-serif, system-ui, -apple-system, Segoe UI, Roboto, Helvetica, Arial" font-size="48" font-weight="800" fill="#2563EB">Emo</text>
    <text x="120" y="0" font-family="Inter, ui-sans-serif, system-ui, -apple-system, Segoe UI, Roboto, Helvetica, Arial" font-size="48" font-weight="800" fill="#10B981">Learn</text>
    <text x="2" y="44" font-family="Inter, ui-sans-serif, system-ui, -apple-system, Segoe UI, Roboto, Helvetica, Arial" font-size="16" fill="#4B5563">Emotion‑Aware Adaptive Learning Assistant</text>
  </g>

  <!-- Accent line -->
  <rect x="170" y="118" width="300" height="4" rx="2" fill="url(#g1)" opacity="0.9"/>
</svg>


